<svg width="186" height="119" viewBox="0 0 186 119" fill="none" xmlns="http://www.w3.org/2000/svg">
<path d="M178.228 64.8015C178.534 69.9297 177.689 75.0614 175.753 79.8201C174.908 82.1503 173.76 84.3594 172.34 86.3908C170.439 89.2153 168.073 91.6968 165.342 93.7295C149.679 104.072 131.452 109.862 112.692 110.455C106.718 110.967 100.318 111.223 93.2358 111.223C86.1531 111.223 79.7531 110.967 73.7798 110.455C55.0195 109.862 36.7922 104.072 21.1291 93.7295C18.3982 91.6968 16.0321 89.2153 14.1317 86.3908C12.7113 84.3594 11.5638 82.1503 10.7184 79.8201C8.78262 75.0614 7.93704 69.9297 8.24375 64.8015C8.98422 45.8475 12.4915 27.1035 18.6544 9.16412C43.0151 15.3376 68.1158 18.0947 93.2358 17.3561C118.356 18.0947 143.456 15.3376 167.817 9.16412C173.98 27.1035 177.487 45.8475 178.228 64.8015Z" fill="#E91E63"/>
<path d="M167.817 9.16412C159.938 11.4092 151.911 13.0972 143.796 14.2158C148.929 30.6214 151.898 47.627 152.628 64.8015C152.934 69.9297 152.089 75.0614 150.153 79.8201C149.308 82.1503 148.16 84.3594 146.74 86.3908C144.839 89.2153 142.473 91.6968 139.742 93.7295C124.079 104.072 105.852 109.862 87.0917 110.455C84.9583 110.634 82.6885 110.745 80.4357 110.864C84.489 111.078 88.6874 111.223 93.2357 111.223C100.318 111.223 106.718 110.967 112.692 110.455C131.452 109.862 149.679 104.072 165.342 93.7295C168.073 91.6968 170.439 89.2153 172.34 86.3908C173.76 84.3594 174.908 82.1503 175.753 79.8201C177.689 75.0614 178.534 69.9297 178.228 64.8015C177.487 45.8475 173.98 27.1035 167.817 9.16412Z" fill="#AD1457"/>
<path d="M178.228 64.8015C178.534 69.9297 177.689 75.0614 175.753 79.8201C174.908 82.1503 173.76 84.3594 172.34 86.3908C170.439 89.2154 168.073 91.6968 165.342 93.7295C149.679 104.072 131.452 109.862 112.692 110.455C106.718 110.967 100.318 111.223 93.2358 111.223C86.1531 111.223 79.7531 110.967 73.7798 110.455C55.0195 109.862 36.7922 104.072 21.1291 93.7295C18.3982 91.6968 16.0321 89.2154 14.1317 86.3908C12.7113 84.3594 11.5638 82.1503 10.7184 79.8201C8.78262 75.0614 7.93704 69.9297 8.24375 64.8015C8.98422 45.8475 12.4915 27.1035 18.6544 9.16412C43.0151 15.3376 68.1158 18.0947 93.2358 17.3561C118.356 18.0947 143.456 15.3376 167.817 9.16412C173.98 27.1035 177.487 45.8475 178.228 64.8015Z" stroke="black" stroke-width="15"/>
<path d="M101.769 60.0228H84.7024C79.9896 60.0228 76.1691 63.8433 76.1691 68.5561C76.1691 73.269 79.9896 77.0895 84.7024 77.0895H101.769C106.482 77.0895 110.302 73.269 110.302 68.5561C110.302 63.8433 106.482 60.0228 101.769 60.0228Z" fill="black"/>
</svg>
