<svg width="272" height="220" viewBox="0 0 272 220" fill="none" xmlns="http://www.w3.org/2000/svg">
<path d="M264.236 109.956C264.236 145.113 264.236 176.175 233.43 194.607C226.331 198.744 218.731 201.955 210.817 204.164C186.456 210.338 161.356 213.095 136.236 212.356C111.116 213.095 86.0151 210.338 61.6544 204.164C53.74 201.955 46.1405 198.744 39.0411 194.607C8.23572 176.175 8.23572 145.113 8.23572 109.956C8.23572 62.6815 48.2571 22.9161 102.614 11.1401C113.664 8.76448 124.934 7.56314 136.236 7.55612C142.252 7.54965 148.264 7.89155 154.241 8.58012C216.364 15.5775 264.236 58.2441 264.236 109.956Z" fill="#FFE0B2"/>
<path d="M154.241 8.58012C148.264 7.89155 142.252 7.54965 136.236 7.55612C132.182 7.55612 128.24 7.90599 124.289 8.20466C125.74 8.33266 127.207 8.40945 128.65 8.58012C190.764 15.5775 238.636 58.2441 238.636 109.956C238.636 145.113 238.636 176.175 207.83 194.607C200.731 198.744 193.131 201.955 185.217 204.164C165.046 209.443 144.286 212.138 123.436 212.185C127.566 212.288 131.807 212.356 136.236 212.356C161.356 213.095 186.456 210.338 210.817 204.164C218.731 201.955 226.331 198.744 233.43 194.607C264.236 176.175 264.236 145.113 264.236 109.956C264.236 58.2441 216.364 15.5775 154.241 8.58012Z" fill="#DFC49C"/>
<path d="M264.236 109.956C264.236 145.113 264.236 176.175 233.43 194.607C226.331 198.744 218.731 201.955 210.817 204.164C186.456 210.338 161.356 213.095 136.236 212.356C111.116 213.095 86.0151 210.338 61.6544 204.164C53.74 201.955 46.1405 198.744 39.0411 194.607C8.23572 176.175 8.23572 145.113 8.23572 109.956C8.23572 62.6815 48.2571 22.9161 102.614 11.1401C113.664 8.76448 124.934 7.56314 136.236 7.55612C142.252 7.54965 148.264 7.89155 154.241 8.58012C216.364 15.5775 264.236 58.2441 264.236 109.956Z" stroke="black" stroke-width="15"/>
<path d="M80.769 169.689C92.5511 169.689 102.102 160.138 102.102 148.356C102.102 136.574 92.5511 127.023 80.769 127.023C68.9869 127.023 59.4357 136.574 59.4357 148.356C59.4357 160.138 68.9869 169.689 80.769 169.689Z" fill="#3F51B5"/>
<path d="M191.702 169.689C203.484 169.689 213.036 160.138 213.036 148.356C213.036 136.574 203.484 127.023 191.702 127.023C179.92 127.023 170.369 136.574 170.369 148.356C170.369 160.138 179.92 169.689 191.702 169.689Z" fill="#3F51B5"/>
<path d="M50.9023 169.689C50.9023 174.402 54.7228 178.223 59.4357 178.223H102.102C106.815 178.223 110.636 174.402 110.636 169.689C110.601 166.873 109.151 164.262 106.779 162.743C109.272 158.356 110.6 153.403 110.636 148.356C110.636 131.861 97.2639 118.489 80.769 118.489C64.2741 118.489 50.9023 131.861 50.9023 148.356C50.9377 153.403 52.2656 158.356 54.7594 162.743C52.3869 164.262 50.9374 166.873 50.9023 169.689ZM80.769 135.556C87.8383 135.556 93.569 141.287 93.569 148.356C93.569 155.425 87.8383 161.156 80.769 161.156C73.6998 161.156 67.969 155.425 67.969 148.356C67.969 141.287 73.6998 135.556 80.769 135.556Z" fill="black"/>
<path d="M161.836 169.689C161.836 174.402 165.656 178.223 170.369 178.223H213.036C217.749 178.223 221.569 174.402 221.569 169.689C221.534 166.873 220.085 164.262 217.712 162.743C220.206 158.356 221.534 153.403 221.569 148.356C221.569 131.861 208.197 118.489 191.702 118.489C175.208 118.489 161.836 131.861 161.836 148.356C161.871 153.403 163.199 158.356 165.693 162.743C163.32 164.262 161.871 166.873 161.836 169.689ZM191.702 135.556C198.772 135.556 204.502 141.287 204.502 148.356C204.502 155.425 198.772 161.156 191.702 161.156C184.633 161.156 178.902 155.425 178.902 148.356C178.902 141.287 184.633 135.556 191.702 135.556Z" fill="black"/>
</svg>
