<svg width="76" height="107" viewBox="0 0 76 107" fill="none" xmlns="http://www.w3.org/2000/svg">
<path d="M63.065 87.6868C56.2383 98.2682 43.1824 105.18 17.753 89.8202C19.6888 85.0615 20.5344 79.9297 20.2277 74.8015C19.4872 55.8475 15.9799 37.1035 9.81702 19.1642C17.7314 16.9555 25.3309 13.7436 32.4303 9.60681C45.6984 20.4008 56.3964 34.0138 63.7477 49.4575C70.2812 61.4285 70.0218 75.9567 63.065 87.6868Z" fill="#9D27B0"/>
<path d="M63.7478 49.4575C56.3965 34.0138 45.6985 20.4008 32.4305 9.60681C27.0621 12.7652 21.3796 15.3563 15.4747 17.338C24.7365 26.7338 32.3957 37.5842 38.1478 49.4575C44.6813 61.4285 44.4219 75.9567 37.4651 87.6868C35.4477 90.9318 32.7122 93.6702 29.4694 95.6911C47.3467 102.714 57.3819 96.5018 63.0651 87.6868C70.0219 75.9567 70.2813 61.4285 63.7478 49.4575Z" fill="#6A1B9A"/>
<path d="M63.065 87.6868C56.2384 98.2682 43.1824 105.18 17.753 89.8202C19.6888 85.0615 20.5344 79.9297 20.2277 74.8015C19.4872 55.8475 15.9799 37.1035 9.81702 19.1642C17.7314 16.9555 25.3309 13.7436 32.4303 9.60681C45.6984 20.4008 56.3964 34.0138 63.7477 49.4575C70.2812 61.4285 70.0218 75.9567 63.065 87.6868V87.6868Z" stroke="black" stroke-width="15"/>
</svg>
