<svg
  width="50"
  height="293"
  viewBox="0 0 45 293"
  fill="none"
  xmlns="http://www.w3.org/2000/svg"
>
  <rect
    x="13.8623"
    y="2.80127"
    width="16.3037"
    height="224.879"
    fill="#825A2C"
    stroke="black"
    stroke-width="10"
  />
  <path
    d="M35.9958 236.717L16.8061 246.312C12.0954 248.476 6.51773 246.507 4.20978 241.865C1.90184 237.223 3.69824 231.587 8.26672 229.137L27.4564 219.542C30.5395 217.889 34.2781 218.045 37.213 219.949C40.1479 221.853 41.8138 225.204 41.5605 228.693C41.3072 232.182 39.1749 235.257 35.9958 236.717Z"
    fill="#A0522D"
    stroke="black"
    stroke-width="10"
  />
  <path
    d="M35.9958 279.699L16.8061 289.294C12.0954 291.458 6.51773 289.489 4.20978 284.847C1.90184 280.205 3.69824 274.569 8.26672 272.119L27.4564 262.525C30.5395 260.871 34.2781 261.027 37.213 262.931C40.1479 264.835 41.8138 268.186 41.5605 271.675C41.3072 275.164 39.1749 278.239 35.9958 279.699Z"
    fill="#A0522D"
    stroke="black"
    stroke-width="10"
  />
  <path
    d="M35.9958 258.162L16.8062 267.756C13.7231 269.41 9.98444 269.254 7.04954 267.35C4.11465 265.446 2.44873 262.095 2.70202 258.606C2.95531 255.117 5.08765 252.042 8.26677 250.582L27.4564 240.987C30.5395 239.334 34.2781 239.489 37.213 241.393C40.1479 243.297 41.8138 246.648 41.5606 250.137C41.3073 253.627 39.1749 256.701 35.9958 258.162Z"
    fill="#825A2C"
    stroke="black"
    stroke-width="10"
  />
</svg>
