<svg width="443" height="795" viewBox="0 0 443 795" fill="none" xmlns="http://www.w3.org/2000/svg">
<path fill-rule="evenodd" clip-rule="evenodd" d="M396.165 455.906C419.452 455.906 438.329 432.372 438.329 403.34C438.329 374.309 419.452 350.775 396.165 350.775C372.878 350.775 354 374.309 354 403.34C354 432.372 372.878 455.906 396.165 455.906ZM396.165 438.384C411.689 438.384 424.275 422.694 424.275 403.34C424.275 383.986 411.689 368.297 396.165 368.297C380.64 368.297 368.055 383.986 368.055 403.34C368.055 422.694 380.64 438.384 396.165 438.384Z" fill="#825A2C"/>
<path d="M435.829 403.34C435.829 431.533 417.585 453.406 396.165 453.406V458.406C421.319 458.406 440.829 433.21 440.829 403.34H435.829ZM396.165 353.275C417.585 353.275 435.829 375.147 435.829 403.34H440.829C440.829 373.471 421.319 348.275 396.165 348.275V353.275ZM356.5 403.34C356.5 375.147 374.745 353.275 396.165 353.275V348.275C371.011 348.275 351.5 373.471 351.5 403.34H356.5ZM396.165 453.406C374.745 453.406 356.5 431.533 356.5 403.34H351.5C351.5 433.21 371.011 458.406 396.165 458.406V453.406ZM421.775 403.34C421.775 421.856 409.822 435.884 396.165 435.884V440.884C413.556 440.884 426.775 423.533 426.775 403.34H421.775ZM396.165 370.797C409.822 370.797 421.775 384.825 421.775 403.34H426.775C426.775 383.148 413.556 365.797 396.165 365.797V370.797ZM370.555 403.34C370.555 384.825 382.507 370.797 396.165 370.797V365.797C378.773 365.797 365.555 383.148 365.555 403.34H370.555ZM396.165 435.884C382.507 435.884 370.555 421.856 370.555 403.34H365.555C365.555 423.533 378.773 440.884 396.165 440.884V435.884Z" fill="black"/>
<rect x="384.862" y="67.8012" width="16.3037" height="224.879" fill="#825A2C" stroke="black" stroke-width="5"/>
<path d="M406.996 301.717L387.806 311.312C383.095 313.476 377.518 311.506 375.21 306.865C372.902 302.223 374.698 296.587 379.267 294.137L398.456 284.542C401.539 282.889 405.278 283.045 408.213 284.949C411.148 286.853 412.814 290.204 412.561 293.693C412.307 297.182 410.175 300.257 406.996 301.717Z" fill="#A0522D" stroke="black" stroke-width="5"/>
<path d="M406.996 344.699L387.806 354.294C383.095 356.458 377.518 354.489 375.21 349.847C372.902 345.205 374.698 339.569 379.267 337.119L398.456 327.524C401.539 325.871 405.278 326.027 408.213 327.931C411.148 329.835 412.814 333.186 412.561 336.675C412.307 340.164 410.175 343.239 406.996 344.699Z" fill="#A0522D" stroke="black" stroke-width="5"/>
<path d="M406.996 323.162L387.806 332.756C384.723 334.41 380.984 334.254 378.05 332.35C375.115 330.446 373.449 327.095 373.702 323.606C373.955 320.117 376.088 317.042 379.267 315.582L398.456 305.987C401.54 304.334 405.278 304.489 408.213 306.393C411.148 308.297 412.814 311.648 412.561 315.137C412.307 318.627 410.175 321.701 406.996 323.162Z" fill="#825A2C" stroke="black" stroke-width="5"/>
<rect x="192.278" y="70.5416" width="196.938" height="28.1098" transform="rotate(136.95 192.278 70.5416)" fill="#C4C4C4" stroke="black" stroke-width="10"/>
<path fill-rule="evenodd" clip-rule="evenodd" d="M438 20C438 11.7157 431.284 5 423 5H20C11.7158 5 5.00003 11.7157 5.00003 20V66.0207L5 780C5 788.284 11.7157 795 20 795H46C54.2842 795 61 788.284 61 780L61 81.0207C61 72.7364 67.7157 66.0207 76 66.0207H423C431.284 66.0207 438 59.305 438 51.0207V20Z" fill="#56412A"/>
<path d="M5.00003 66.0207H10H5.00003ZM61 81.0207H56H61ZM20 10H423V0H20V10ZM10 66.0207V20H2.95639e-05V66.0207H10ZM10 780L10 66.0207H2.95639e-05L0 780H10ZM46 790H20V800H46V790ZM56 81.0207L56 780H66L66 81.0207H56ZM423 61.0207H76V71.0207H423V61.0207ZM433 20V51.0207H443V20H433ZM423 71.0207C434.046 71.0207 443 62.0664 443 51.0207H433C433 56.5435 428.523 61.0207 423 61.0207V71.0207ZM46 800C57.0457 800 66 791.046 66 780H56C56 785.523 51.5228 790 46 790V800ZM0 780C-4.76837e-07 791.046 8.95429 800 20 800V790C14.4771 790 10 785.523 10 780H0ZM423 10C428.523 10 433 14.4772 433 20H443C443 8.9543 434.046 0 423 0V10ZM66 81.0207C66 75.4978 70.4771 71.0207 76 71.0207V61.0207C64.9543 61.0207 56 69.975 56 81.0207H66ZM20 0C8.95434 0 2.95639e-05 8.95428 2.95639e-05 20H10C10 14.4771 14.4772 10 20 10V0Z" fill="black"/>
</svg>
